<svg width="22" height="20" viewBox="0 0 22 20" fill="none" xmlns="http://www.w3.org/2000/svg">
<path d="M10.3114 2.70425L10.691 3.14704L11.0706 2.70425C12.132 1.46617 13.7614 0.676468 15.4504 0.676468C18.4318 0.676468 20.7673 3.00444 20.7673 6C20.7673 7.83168 19.9467 9.53761 18.4012 11.4305C16.8502 13.3302 14.6217 15.3568 11.8885 17.838L11.8878 17.8387L10.691 18.9294L9.49428 17.8387L9.49356 17.838C6.76034 15.3568 4.53188 13.3302 2.98088 11.4305C1.4354 9.53761 0.614761 7.83168 0.614761 6C0.614761 3.00444 2.9503 0.676468 5.93171 0.676468C7.62062 0.676468 9.25003 1.46617 10.3114 2.70425Z" fill="#952020" stroke="#952020"/>
</svg>
